<?xml version="1.0" encoding="UTF-8"?>
<svg id="Layer_2" data-name="Layer 2" xmlns="http://www.w3.org/2000/svg" viewBox="0 0 193.23 33.53">
  <defs>
    <style>
      .cls-1 {
        fill: #fff;
      }
    </style>
  </defs>
  <g id="Layer_1-2" data-name="Layer 1">
    <g>
      <path class="cls-1" d="m6.73,28.04c0,1.79,1.24,2.85,2.96,2.85,2.05,0,4.42-1.39,5.59-2.96.15-.26.33-.26.44-.26h.11c.4.11,1.06.66,1.65,1.28.55.62.84,1.21.84,1.46v.11c-.58,1.35-2.74,3-5.37,3-2.34,0-4.42-1.24-6-2.85-.48-.47-1.32-1.39-1.9-2.41-.62-1.06-.88-2.05-.88-2.74,0-.33.04-.62.11-.91.58-2.71,5.08-4.35,7.5-5.41-.11-.04-.26-.07-.51-.18h-.04s-.07,0-.11-.04l-.07-.04c-.11-.04-.18-.07-.29-.11-.55-.18-1.24-.44-2.01-.84-1.1.88-3.98,2.85-5.48,2.85-.29,0-.55-.11-.73-.29L.11,17.99c-.07-.11-.11-.18-.11-.22,0-.11.22-.22.4-.26,1.75-.44,2.82-1.02,4.39-1.94-1.86-1.17-4.2-2.78-4.2-5.23,0-1.75,1.65-2.89,3.14-2.89,3.33,0,7.09,2.89,7.09,6.51,0,1.13-.4,2.3-1.24,3.14,1.43.58,3.14,1.17,4.57,1.32.69.04,1.46.73,2.05,1.46.55.73.69,1.28.69,1.54,0,.11-.04.22-.11.29-1.86.48-5.89,1.97-8.15,3.44-.62.4-1.9,1.39-1.9,2.89Zm1.35-16.89c0-.73-.26-1.24-1.24-1.24-1.46,0-2.45,1.13-2.6,2.56v.33c0,.88.22,1.57,1.21,2.34,1.65-1.13,2.63-2.71,2.63-3.98Z"/>
      <path class="cls-1" d="m10.86,8.48c-.26-.33.15-.44.33-.44h2.85c0-.29-.04-.69.22-.95.4-.4.91-.33,1.35-.07,1.13.55,2.6,2.27,3.29,3.14,0,0,.88.99.44,1.24-.18.11-.37.15-.58.15h-.62c-.11,1.94-.07,3.88-.07,5.81,0,1.13.04,3.84.58,4.97.88,1.79,4.02,3.44,4.42,3.84.26.26-.18.22-.22.22-.26-.07-1.54-.95-2.05-1.35-1.46-1.13-3.29-2.34-4.57-3.62-.69-.7-1.32-1.57-1.72-2.49-.69-1.68-.37-4.53-.48-7.39h-.07c-.48,0-.62,0-.95-.4l-2.16-2.67Z"/>
      <path class="cls-1" d="m18.57,8.48c-.26-.33.15-.44.33-.44h2.85c0-.29-.04-.69.22-.95.4-.4.91-.33,1.35-.07,1.13.55,2.6,2.27,3.29,3.14,0,0,.88.99.44,1.24-.18.11-.37.15-.58.15h-.62c-.11,1.94-.07,3.88-.07,5.81,0,1.13.04,3.84.58,4.97.88,1.79,4.02,3.44,4.42,3.84.26.26-.18.22-.22.22-.26-.07-1.54-.95-2.05-1.35-1.46-1.13-3.29-2.34-4.57-3.62-.69-.7-1.32-1.57-1.72-2.49-.69-1.68-.37-4.53-.48-7.39h-.07c-.48,0-.62,0-.95-.4l-2.16-2.67Z"/>
      <path class="cls-1" d="m14.51,0h.11c3.66,0,7.02,4.83,8.81,8.3h-.66c-.95-1.83-3.11-4.17-5.78-4.17-1.13,0-2.85.66-2.96,1.94v.18c0,.69.66,1.39.66,1.79,0,.18-.07.29-.22.29-.07,0-.15-.04-.26-.07-.44-.18-1.46-1.02-2.27-2.08-.8-1.02-1.21-2.05-1.21-2.78,0-.18.04-.4.07-.58.48-1.75,1.83-2.78,3.69-2.82Z"/>
      <path class="cls-1" d="m46.06,8.04c.48,0,.62,0,.95.4l2.16,2.67c.07.07.11.15.11.22,0,.11-.26.22-.44.22h-11.26c-.48,0-.62,0-.95-.4l-2.16-2.67c-.07-.11-.11-.18-.11-.22,0-.11.26-.22.44-.22h11.26Zm-.62,7.39c-1.02,0-1.75.18-2.38.44l3.8,3.91c1.02-.4,1.75-.84,2.52-1.57l2.56,3.55c-.33.4-1.1.99-2.16,1.43-1.06.44-2.27.62-3.29.62-.29,0-.58,0-.91-.04-2.01-.15-4.28-1.35-6-2.92-1.75-1.57-2.78-3.33-2.78-4.68,0-.11,0-.26.04-.37.29-2.63,3.66-3.07,5.23-3.07,2.01,0,4.17.88,5.52,2.23.18.18.26.33.26.44s-.04.33-.29.33h-.11c-.69-.26-1.32-.29-2.01-.29Zm-3.36,1.1c-.99.69-1.68,1.57-1.83,2.41-.04.18-.04.33-.04.44,0,.77.55,1.32,1.9,1.43h.44c.99,0,2.49-.15,3.25-.55l-3.73-3.73Z"/>
      <path class="cls-1" d="m45.62,8.48c-.26-.33.15-.44.33-.44h2.85c0-.29-.04-.69.22-.95.4-.4.91-.33,1.35-.07,1.13.55,2.6,2.27,3.29,3.14,0,0,.88.99.44,1.24-.18.11-.37.15-.58.15h-.62c-.11,1.94-.07,3.88-.07,5.81,0,1.13.04,3.84.58,4.97.88,1.79,4.02,3.44,4.42,3.84.26.26-.18.22-.22.22-.26-.07-1.54-.95-2.05-1.35-1.46-1.13-3.29-2.34-4.57-3.62-.69-.7-1.32-1.57-1.72-2.49-.69-1.68-.37-4.53-.48-7.39h-.07c-.48,0-.62,0-.95-.4l-2.16-2.67Z"/>
      <path class="cls-1" d="m65.07,11.55h-8.92c-.48,0-.62,0-.95-.4l-2.16-2.67c-.07-.11-.11-.18-.11-.22,0-.11.26-.22.44-.22h11.44c0-.62.11-1.21.88-1.21.22,0,.44.07.69.18,1.13.55,2.6,2.27,3.29,3.14.18.18.51.88.51.95,0,.11-.04.18-.07.22-.15.15-.33.22-.58.22h-.44l.04,2.56c0,.55-.11,1.46-.84,1.94-.55.33-1.75.4-3.18.4h-1.83c-1.79,0-3.29.15-3.29,1.02.04.55.73.99,1.21.99.58,0,1.21-.15,1.83-.4l.91-.37c.62-.26,1.24-.4,1.83-.4,2.19,0,6.03,3.77,6.03,6.11,0,2.05-2.56,3.11-5.3,3.11h-.4c-.15,0-.29,0-.4-.04-3.51-.29-8.08-4.5-10.27-6.87-.04-.11-.11-.22-.11-.37,0-.07.07-.15.26-.18.15,0,.29.07.4.18,2.19,2.38,4.68,4.13,8.08,4.13,2.71,0,5.3-1.17,5.3-2.3,0-.55-.48-.62-.88-.62-1.24,0-2.89,1.32-4.28,1.32-2.05,0-7.28-4.46-7.28-6.65s3-2.19,4.46-2.19c.99,0,1.5.04,1.75.04.95,0,1.97-.11,1.97-.62v-.07l-.04-.7Z"/>
      <path class="cls-1" d="m62.69,26.62c.8,0,2.16,1.64,2.27,2.23v.07c0,.44-1.35,1.9-2.41,1.9-.73,0-2.3-1.61-2.3-2.16,0-.69,1.72-2.05,2.45-2.05Z"/>
      <path class="cls-1" d="m69.34,8.48c-.26-.33.15-.44.33-.44h2.85c0-.29-.04-.69.22-.95.4-.4.91-.33,1.35-.07,1.13.55,2.6,2.27,3.29,3.14,0,0,.88.99.44,1.24-.18.11-.37.15-.58.15h-.62c-.11,1.94-.07,3.88-.07,5.81,0,1.13.04,3.84.58,4.97.88,1.79,4.02,3.44,4.42,3.84.26.26-.18.22-.22.22-.26-.07-1.54-.95-2.05-1.35-1.46-1.13-3.29-2.34-4.57-3.62-.69-.7-1.32-1.57-1.72-2.49-.69-1.68-.37-4.53-.48-7.39h-.07c-.48,0-.62,0-.95-.4l-2.16-2.67Z"/>
      <path class="cls-1" d="m93.18,22.16c-.4,0-.69-.04-1.1-.15-1.5-.4-4.02-2.74-4.02-4.13,0-.69.58-1.28,1.28-1.28,1.06,0,1.68.84,2.82,1.68,1.57,0,3.47-1.21,3.47-3.36v-3.36h-7.42c-.48,0-.62,0-.95-.4l-2.16-2.67c-.26-.33.15-.44.33-.44h10.24c0-.77.18-1.24,1.02-1.24.4,0,.66.11.91.22,1.13.55,2.6,2.27,3.29,3.14.11.11.73.88.44,1.17-.15.15-.33.22-.58.22h-.84c0,.91-.07,3.33-.07,4.17,0,3.33-2.12,5.63-4.57,6.11,2.45,1.94,4.5,3.62,6.84,5.67.4.4.11.77-.18.51-1.13-.84-7.17-5.89-7.46-6.03-.48.11-.91.18-1.28.18Z"/>
      <path class="cls-1" d="m100.64,8.48c-.26-.33.15-.44.33-.44h2.85c0-.29-.04-.69.22-.95.4-.4.91-.33,1.35-.07,1.13.55,2.6,2.27,3.29,3.14,0,0,.88.99.44,1.24-.18.11-.37.15-.58.15h-.62c-.11,1.94-.07,3.88-.07,5.81,0,1.13.04,3.84.58,4.97.88,1.79,4.02,3.44,4.42,3.84.26.26-.18.22-.22.22-.26-.07-1.54-.95-2.05-1.35-1.46-1.13-3.29-2.34-4.57-3.62-.69-.7-1.32-1.57-1.72-2.49-.69-1.68-.37-4.53-.48-7.39h-.07c-.48,0-.62,0-.95-.4l-2.16-2.67Z"/>
      <path class="cls-1" d="m122.21,8.04c.48,0,.62,0,.95.4l2.16,2.67c.07.07.11.15.11.22,0,.11-.26.22-.44.22h-3.88c0,1.02.04,2.08.04,4.13l4.35-.07.62,3.44-5.05-.04v.8c0,2.27-.33,3.44-1.35,3.95-.4.22-.88.33-1.39.33-.26,0-.99.04-2.38-.55-.69-.26-1.39-.66-2.01-1.13-2.05-1.5-2.85-3.25-2.85-4.17,0-.26.04-.48.11-.7.4-1.17,2.01-1.86,5.3-1.86h.66l-.11-4.13h-5.59c-.48,0-.62,0-.95-.4l-2.16-2.67c-.07-.11-.11-.18-.11-.22,0-.11.26-.22.44-.22h13.53Zm-7.53,11.11c-.73.22-.99.62-.99.95,0,.15.04.33.11.51.26.69,1.1,1.28,2.01,1.28.15,0,.29,0,.48-.04.77-.11.84-.95.84-1.86,0-.33,0-.66-.04-1.06-.77,0-1.72,0-2.41.22Z"/>
      <path class="cls-1" d="m121.73,8.48c-.26-.33.15-.44.33-.44h2.85c0-.29-.04-.69.22-.95.4-.4.91-.33,1.35-.07,1.13.55,2.6,2.27,3.29,3.14,0,0,.88.99.44,1.24-.18.11-.37.15-.58.15h-.62c-.11,1.94-.07,3.88-.07,5.81,0,1.13.04,3.84.58,4.97.88,1.79,4.02,3.44,4.42,3.84.26.26-.18.22-.22.22-.26-.07-1.54-.95-2.05-1.35-1.46-1.13-3.29-2.34-4.57-3.62-.69-.7-1.32-1.57-1.72-2.49-.69-1.68-.37-4.53-.48-7.39h-.07c-.48,0-.62,0-.95-.4l-2.16-2.67Z"/>
      <path class="cls-1" d="m140.59,12.36c.49-.2,1-.31,1.54-.35.54-.04,1.06-.05,1.57-.05h3.25v-1.83h-10.31l-3.51-3.47h21.06l3.55,3.47h-6.62v4.72h-5.08c-.76,0-1.42.09-1.99.26-.57.17-1.05.4-1.44.68-.39.28-.68.6-.86.95-.18.35-.27.7-.27,1.04,0,.37.1.71.29,1.02.19.32.46.58.79.8.33.22.7.4,1.12.53.41.13.84.2,1.28.2.49,0,.95-.08,1.39-.26.44-.17.82-.45,1.13-.84-.34-.22-.63-.47-.88-.77-.24-.29-.4-.58-.48-.88-.07-.29-.05-.57.05-.84.11-.27.35-.5.71-.7.22-.12.5-.18.84-.18.56,0,1.13.2,1.72.58.58.39,1.07.87,1.46,1.44.39.57.62,1.18.68,1.81.06.63-.15,1.19-.64,1.68l11.48,11.41s-.07.03-.15.09c-.07.06-.16.13-.26.2-.12.1-.24.21-.37.33l-8.3-8.3c.07.66,0,1.25-.22,1.79s-.52.99-.91,1.35c-.39.37-.82.65-1.3.86s-.94.31-1.41.31c-.27,0-.51-.04-.73-.11-.37-.12-.63-.24-.8-.37-.17-.12-.41-.29-.73-.51-.49-.37-.96-.76-1.41-1.19-.45-.43-.9-.86-1.33-1.3-.12-.12-.23-.24-.33-.37-.1-.12-.21-.24-.33-.37-.15-.27-.27-.55-.37-.86-.1-.3-.1-.59,0-.86.1-.27.27-.49.51-.66-1.02-.29-1.91-.8-2.65-1.54-.74-.73-1.43-1.5-2.07-2.3-.05-.07-.09-.13-.13-.18-.04-.05-.08-.11-.13-.18-.29-.51-.52-1.08-.69-1.72-.07-.44-.08-.9-.04-1.37.05-.48.16-.93.35-1.35.18-.43.44-.8.77-1.13s.72-.57,1.19-.71Zm10.05,10.05c-1.29.32-2.26.79-2.91,1.43-.65.63-.81,1.41-.49,2.34.07.19.21.35.4.46.19.11.43.17.69.17.29,0,.61-.07.95-.22.34-.15.65-.38.93-.69.28-.32.51-.72.69-1.21.18-.49.27-1.06.27-1.72l-.55-.55Z"/>
      <path class="cls-1" d="m151.7,8.48c-.26-.33.15-.44.33-.44h2.85c0-.29-.04-.69.22-.95.4-.4.91-.33,1.35-.07,1.13.55,2.6,2.27,3.29,3.14,0,0,.88.99.44,1.24-.18.11-.37.15-.58.15h-.62c-.11,1.94-.07,3.88-.07,5.81,0,1.13.04,3.84.58,4.97.88,1.79,4.02,3.44,4.42,3.84.26.26-.18.22-.22.22-.26-.07-1.54-.95-2.05-1.35-1.46-1.13-3.29-2.34-4.57-3.62-.69-.7-1.32-1.57-1.72-2.49-.69-1.68-.37-4.53-.48-7.39h-.07c-.48,0-.62,0-.95-.4l-2.16-2.67Z"/>
      <path class="cls-1" d="m167.17,22.16c-.4,0-.69-.04-1.1-.15-1.5-.4-4.02-2.74-4.02-4.13,0-.69.58-1.28,1.28-1.28,1.06,0,1.68.84,2.82,1.68,1.57,0,3.47-1.21,3.47-3.36v-3.36h-7.06c-.48,0-.62,0-.95-.4l-2.16-2.67c-.07-.11-.11-.18-.11-.22,0-.11.26-.22.44-.22h9.87c0-.77.18-1.24,1.02-1.24.4,0,.66.11.91.22,1.13.55,2.6,2.27,3.29,3.14.18.18.51.88.51.95,0,.11-.04.18-.07.22-.15.15-.33.22-.58.22h-.84c0,.66-.07,2.23-.07,3.29v.88c0,3.33-2.12,5.63-4.57,6.11,3.99,3.4,9.03,7.42,14.59,7.42,1.9,0,3.73-.44,4.86-1.5.73-.69,1.02-1.32,1.06-1.57.04-.18.18-.33.29-.33t.07.04c1.28.58,3.11,2.16,3.11,2.78,0,.55-.91,1.61-1.54,2.01-1.57,1.06-3.36,1.5-5.12,1.5-2.05,0-3.95-.55-5.52-1.32-3.77-1.83-9.14-6.07-12.61-8.88-.48.11-.91.18-1.28.18Z"/>
      <path class="cls-1" d="m174.84,8.48c-.26-.33.15-.44.33-.44h2.85c0-.29-.04-.69.22-.95.4-.4.91-.33,1.35-.07,1.13.55,2.6,2.27,3.29,3.14,0,0,.88.99.44,1.24-.18.11-.37.15-.58.15h-.62c-.11,1.94-.07,3.88-.07,5.81,0,1.13.04,3.84.58,4.97.88,1.79,4.02,3.44,4.42,3.84.26.26-.18.22-.22.22-.26-.07-1.54-.95-2.05-1.35-1.46-1.13-3.29-2.34-4.57-3.62-.69-.7-1.32-1.57-1.72-2.49-.69-1.68-.37-4.53-.48-7.39h-.07c-.48,0-.62,0-.95-.4l-2.16-2.67Z"/>
    </g>
  </g>
</svg>