<svg width="31" height="31" viewBox="0 0 31 31" fill="none" xmlns="http://www.w3.org/2000/svg">
<path fill-rule="evenodd" clip-rule="evenodd" d="M3.98252 1.3032C3.16043 0.645521 1.96084 0.778809 1.30316 1.6009C0.645491 2.42299 0.778778 3.62258 1.60087 4.28026L14.3092 14.4469C15.0054 15.0039 15.9947 15.0039 16.6909 14.4469L29.3992 4.28026C30.2213 3.62258 30.3546 2.42299 29.6969 1.6009C29.0392 0.778809 27.8396 0.645521 27.0175 1.3032L15.5 10.5172L3.98252 1.3032ZM3.98252 16.5532C3.16043 15.8955 1.96084 16.0288 1.30316 16.8509C0.645491 17.673 0.778778 18.8726 1.60087 19.5303L14.3092 29.6969C15.0054 30.2539 15.9947 30.2539 16.6909 29.6969L29.3992 19.5303C30.2213 18.8726 30.3546 17.673 29.6969 16.8509C29.0392 16.0288 27.8396 15.8955 27.0175 16.5532L15.5 25.7672L3.98252 16.5532Z" fill="white"/>
</svg>
