<svg width="20" height="21" viewBox="0 0 20 21" fill="none" xmlns="http://www.w3.org/2000/svg">
<path d="M5.83363 6.50865H14.167V8.00032C14.167 8.37532 14.617 8.55865 14.8753 8.29199L17.2003 5.96699C17.367 5.80032 17.367 5.54199 17.2003 5.37532L14.8753 3.05032C14.8165 2.99273 14.7421 2.95383 14.6612 2.9385C14.5804 2.92317 14.4969 2.93212 14.4211 2.9642C14.3454 2.99628 14.2808 3.05007 14.2356 3.11878C14.1904 3.18749 14.1665 3.26806 14.167 3.35032V4.84199H5.00029C4.54196 4.84199 4.16696 5.21699 4.16696 5.67532V9.00865C4.16696 9.46699 4.54196 9.84199 5.00029 9.84199C5.45863 9.84199 5.83363 9.46699 5.83363 9.00865V6.50865ZM14.167 14.842H5.83363V13.3503C5.83363 12.9753 5.38363 12.792 5.12529 13.0587L2.80029 15.3837C2.63363 15.5503 2.63363 15.8087 2.80029 15.9753L5.12529 18.3003C5.18404 18.3579 5.25852 18.3968 5.33934 18.4121C5.42016 18.4275 5.50371 18.4185 5.57946 18.3864C5.65521 18.3544 5.71977 18.3006 5.765 18.2319C5.81023 18.1631 5.83411 18.0826 5.83363 18.0003V16.5087H15.0003C15.4586 16.5087 15.8336 16.1337 15.8336 15.6753V12.342C15.8336 11.8837 15.4586 11.5087 15.0003 11.5087C14.542 11.5087 14.167 11.8837 14.167 12.342V14.842Z" fill="#8996B8"/>
</svg>
