<svg width="21" height="21" viewBox="0 0 21 21" fill="none" xmlns="http://www.w3.org/2000/svg">
<path d="M15.4 8.43366C15.4 8.65467 15.4878 8.86663 15.6441 9.02291C15.8004 9.1792 16.0123 9.26699 16.2333 9.26699C16.4544 9.26699 16.6663 9.1792 16.8226 9.02291C16.9789 8.86663 17.0667 8.65467 17.0667 8.43366V4.84199C17.0667 4.62098 16.9789 4.40902 16.8226 4.25274C16.6663 4.09646 16.4544 4.00866 16.2333 4.00866H12.65C12.429 4.00866 12.217 4.09646 12.0608 4.25274C11.9045 4.40902 11.8167 4.62098 11.8167 4.84199C11.8167 5.06301 11.9045 5.27497 12.0608 5.43125C12.217 5.58753 12.429 5.67533 12.65 5.67533H14.225L10.4 9.50033L5.53335 4.64199C5.37393 4.50547 5.16887 4.43413 4.95914 4.44223C4.74941 4.45033 4.55046 4.53728 4.40205 4.68569C4.25363 4.8341 4.16669 5.03305 4.15859 5.24278C4.15049 5.45251 4.22183 5.65757 4.35835 5.81699L9.21668 10.6753L3.97501 15.917C3.89691 15.9945 3.83491 16.0866 3.7926 16.1882C3.7503 16.2897 3.72852 16.3986 3.72852 16.5087C3.72852 16.6187 3.7503 16.7276 3.7926 16.8291C3.83491 16.9307 3.89691 17.0229 3.97501 17.1003C4.05248 17.1784 4.14465 17.2404 4.2462 17.2827C4.34775 17.325 4.45667 17.3468 4.56668 17.3468C4.67669 17.3468 4.78561 17.325 4.88716 17.2827C4.98871 17.2404 5.08088 17.1784 5.15835 17.1003L15.4 6.85866V8.43366Z" fill="#8996B8"/>
<path d="M16.2332 12.0753C16.0122 12.0753 15.8002 12.1631 15.6439 12.3194C15.4877 12.4757 15.3999 12.6876 15.3999 12.9087V14.5003L13.0832 12.1753C12.9263 12.0184 12.7134 11.9303 12.4915 11.9303C12.2696 11.9303 12.0568 12.0184 11.8999 12.1753C11.7429 12.3322 11.6548 12.5451 11.6548 12.767C11.6548 12.9889 11.7429 13.2017 11.8999 13.3587L14.2082 15.6753H12.6415C12.4205 15.6753 12.2086 15.7631 12.0523 15.9194C11.896 16.0757 11.8082 16.2876 11.8082 16.5087C11.8082 16.7297 11.896 16.9416 12.0523 17.0979C12.2086 17.2542 12.4205 17.342 12.6415 17.342H16.2332C16.3508 17.3427 16.4672 17.3185 16.5748 17.271C16.6824 17.2235 16.7787 17.1538 16.8574 17.0665C16.9361 16.9791 16.9954 16.876 17.0315 16.7641C17.0675 16.6522 17.0795 16.5339 17.0665 16.417V12.9087C17.0665 12.6876 16.9787 12.4757 16.8225 12.3194C16.6662 12.1631 16.4542 12.0753 16.2332 12.0753Z" fill="#8996B8"/>
</svg>
