<svg width="21" height="21" viewBox="0 0 21 21" fill="none" xmlns="http://www.w3.org/2000/svg">
<path d="M5.6665 14.6675L6.05219 14.0243L5.87413 13.9175H5.6665V14.6675ZM5.6665 6.67272V7.42272H5.87413L6.05219 7.31595L5.6665 6.67272ZM12.3332 2.67532H13.0832C13.0832 2.40516 12.9379 2.15587 12.7028 2.02273C12.4677 1.88958 12.1792 1.89316 11.9475 2.03209L12.3332 2.67532ZM12.3332 18.6649L11.9475 19.3081C12.1792 19.4471 12.4677 19.4506 12.7028 19.3175C12.9379 19.1843 13.0832 18.9351 13.0832 18.6649H12.3332ZM5.6665 13.9175H2.99984V15.4175H5.6665V13.9175ZM2.99984 13.9175C2.6771 13.9175 2.4165 13.6567 2.4165 13.335H0.916504C0.916504 14.4871 1.85057 15.4175 2.99984 15.4175V13.9175ZM2.4165 13.335V8.00518H0.916504V13.335H2.4165ZM2.4165 8.00518C2.4165 7.68349 2.6771 7.42272 2.99984 7.42272V5.92272C1.85057 5.92272 0.916504 6.85317 0.916504 8.00518H2.4165ZM2.99984 7.42272H5.6665V5.92272H2.99984V7.42272ZM6.05219 7.31595L12.7189 3.31855L11.9475 2.03209L5.28082 6.02949L6.05219 7.31595ZM11.5832 2.67532V18.6649H13.0832V2.67532H11.5832ZM12.7189 18.0217L6.05219 14.0243L5.28082 15.3107L11.9475 19.3081L12.7189 18.0217ZM14.2498 8.67532V12.6753H15.7498V8.67532H14.2498Z" fill="#8996B8"/>
</svg>
