<svg width="56" height="57" viewBox="0 0 56 57" fill="none" xmlns="http://www.w3.org/2000/svg">
<rect width="56" height="57" rx="28" fill="#00D95F"/>
<path d="M14.0001 41.6948L16.0091 34.0917C14.3889 31.1299 13.8742 27.6738 14.5593 24.3574C15.2444 21.0411 17.0835 18.0871 19.739 16.0374C22.3945 13.9878 25.6883 12.9799 29.016 13.1989C32.3437 13.4179 35.4821 14.8489 37.8553 17.2295C40.2285 19.61 41.6773 22.7804 41.9358 26.1588C42.1943 29.5372 41.2452 32.8971 39.2627 35.6218C37.2802 38.3465 34.3972 40.2534 31.1428 40.9925C27.8884 41.7315 24.4809 41.2532 21.5455 39.6453L14.0001 41.6948ZM21.9093 36.8002L22.376 37.0815C24.5021 38.3621 26.9854 38.892 29.4389 38.5887C31.8924 38.2854 34.1782 37.1659 35.9402 35.4046C37.7022 33.6433 38.8413 31.3393 39.1801 28.8514C39.5189 26.3636 39.0383 23.8317 37.8132 21.6504C36.5881 19.4691 34.6873 17.7609 32.407 16.792C30.1268 15.8231 27.5952 15.6478 25.2067 16.2936C22.8182 16.9394 20.7071 18.3699 19.2022 20.3623C17.6973 22.3546 16.8833 24.7969 16.887 27.3084C16.885 29.3909 17.4517 31.4331 18.5242 33.2076L18.8168 33.6979L17.6937 37.9415L21.9093 36.8002Z" fill="white"/>
<path fill-rule="evenodd" clip-rule="evenodd" d="M33.235 29.2607C32.9615 29.0365 32.6412 28.8787 32.2985 28.7993C31.9559 28.7199 31.5999 28.721 31.2577 28.8026C30.7437 29.0196 30.4115 29.8393 30.0793 30.2492C30.0092 30.3475 29.9063 30.4164 29.7898 30.443C29.6733 30.4697 29.5513 30.4522 29.4465 30.3939C27.5644 29.6448 25.9868 28.2711 24.9699 26.4959C24.8832 26.3851 24.8422 26.2445 24.8554 26.1036C24.8687 25.9627 24.9353 25.8325 25.0411 25.7404C25.4116 25.3677 25.6836 24.9061 25.832 24.3982C25.865 23.8381 25.7387 23.2801 25.4682 22.7908C25.2591 22.1049 24.8612 21.4941 24.3214 21.0307C24.043 20.9035 23.7343 20.8608 23.4326 20.9079C23.1308 20.9549 22.8489 21.0897 22.6209 21.2959C22.225 21.643 21.9108 22.0759 21.7014 22.5627C21.4919 23.0495 21.3927 23.5779 21.4108 24.1089C21.412 24.4071 21.4492 24.704 21.5215 24.993C21.7052 25.6873 21.9876 26.3507 22.3599 26.9621C22.6285 27.4304 22.9216 27.8838 23.2378 28.3203C24.2657 29.7541 25.5577 30.9715 27.0421 31.9049C27.7871 32.3792 28.5832 32.7648 29.4149 33.0542C30.2788 33.4521 31.2327 33.6049 32.1752 33.4962C32.7122 33.4136 33.221 33.1982 33.6568 32.8688C34.0927 32.5395 34.4421 32.1063 34.6745 31.6075C34.8111 31.3062 34.8525 30.9693 34.7932 30.6431C34.6508 29.976 33.7729 29.5822 33.235 29.2607Z" fill="white"/>
</svg>
